<?xml version="1.0" encoding="UTF-8" standalone="no"?><!DOCTYPE svg PUBLIC "-//W3C//DTD SVG 1.1//EN" "http://www.w3.org/Graphics/SVG/1.1/DTD/svg11.dtd"><svg width="100%" height="100%" viewBox="0 0 24 24" version="1.1" xmlns="http://www.w3.org/2000/svg" xmlns:xlink="http://www.w3.org/1999/xlink" xml:space="preserve" xmlns:serif="http://www.serif.com/" style="fill-rule:evenodd;clip-rule:evenodd;stroke-linejoin:round;stroke-miterlimit:2;"><rect id="Commercial-Painting-Icon" serif:id="Commercial Painting Icon" x="0" y="0" width="24" height="24" style="fill:none;"/><path d="M7.912,14.598c0.191,-0.191 0.501,-0.191 0.692,-0c0.191,0.191 0.191,0.501 0,0.692l-1.151,1.151c-0.191,0.191 -0.501,0.191 -0.692,-0l-1.912,-1.912c-0.191,-0.191 -0.191,-0.501 -0,-0.692l6.055,-6.056c0.191,-0.191 0.501,-0.191 0.693,0l0.956,0.956c0.191,0.191 0.191,0.501 -0,0.693c-0.191,0.191 -0.502,0.191 -0.693,-0l-0.61,-0.61l-5.363,5.363l1.22,1.22l0.805,-0.805Z" style="fill:#c77e3f;"/><path d="M11.86,9.43c-0.191,-0.192 -0.191,-0.502 0,-0.693c0.191,-0.191 0.502,-0.191 0.693,0l0.956,0.956c0.191,0.192 0.191,0.501 -0,0.693l-4.905,4.904c-0.191,0.191 -0.501,0.191 -0.692,0c-0.191,-0.191 -0.191,-0.501 0,-0.692l4.558,-4.558l-0.61,-0.61Z" style="fill:#c77e3f;"/><path d="M12.207,9.776l-0.693,-0.693l1.621,-1.621c0.191,-0.191 0.501,-0.191 0.692,0l2.869,2.869c0.191,0.191 0.191,0.501 -0,0.692l-0.954,0.954l-0.692,-0.692l0.346,-0.346l0.261,-0.262l-2.176,-2.176l-1.274,1.275Z" style="fill:#c77e3f;"/><path d="M15.742,10.593l0.692,0.692l-0.346,0.346l-3.827,3.826l0.638,0.638l-0.692,0.692l-0.984,-0.983c-0.191,-0.192 -0.191,-0.502 0,-0.693l4.519,-4.518Z" style="fill:#c77e3f;"/><path d="M13.827,15.749l5.324,5.323c0.191,0.191 0.191,0.501 0,0.693l-1.275,1.274c-0.191,0.191 -0.501,0.191 -0.692,0l-5.324,-5.323c-0.191,-0.191 -0.191,-0.501 0,-0.692l1.275,-1.275c0.191,-0.191 0.501,-0.191 0.692,-0Zm-0.346,1.038l-0.582,0.583l4.631,4.631l0.583,-0.583l-4.632,-4.631Z" style="fill:#c77e3f;"/><path d="M5.88,7.138l0,-1.608c0,-0.165 0.081,-0.319 0.218,-0.412l5.62,-3.848c0.17,-0.116 0.394,-0.116 0.564,0l5.62,3.848c0.137,0.093 0.218,0.247 0.218,0.412l-0,1.608l4.354,-0c0.277,-0 0.5,0.224 0.5,0.5l0,12.756c0,0.276 -0.223,0.5 -0.5,0.5l-4.476,0l0,-0.84l-0.378,0.378l-0.5,-0.5l-0,-12.294l-0,-1.844l-5.12,-3.505l-5.12,3.505l0,7.23l-0.5,0.5l-0.5,-0.5l0,-4.886l-3.854,-0l-0,11.756l3.854,0l0,-4.461c0,-0.276 0.224,-0.5 0.5,-0.5c0.276,0 0.5,0.224 0.5,0.5l0,4.461l8.243,0l0,1l-13.597,0c-0.277,0 -0.5,-0.224 -0.5,-0.5l-0,-12.756c-0,-0.276 0.223,-0.5 0.5,-0.5l4.354,-0Zm12.24,12.756l3.854,0l0,-11.756l-3.854,-0l-0,11.756Z" style="fill:#c77e3f;"/></svg>