<?xml version="1.0" encoding="UTF-8" standalone="no"?><!DOCTYPE svg PUBLIC "-//W3C//DTD SVG 1.1//EN" "http://www.w3.org/Graphics/SVG/1.1/DTD/svg11.dtd"><svg width="100%" height="100%" viewBox="0 0 24 24" version="1.1" xmlns="http://www.w3.org/2000/svg" xmlns:xlink="http://www.w3.org/1999/xlink" xml:space="preserve" xmlns:serif="http://www.serif.com/" style="fill-rule:evenodd;clip-rule:evenodd;stroke-linejoin:round;stroke-miterlimit:2;"><rect id="Power-Washing-Icon" serif:id="Power Washing Icon" x="0" y="0" width="24" height="24" style="fill:none;"/><g><path d="M22.061,21.713c0.198,0.181 0.213,0.488 0.033,0.687c-0.18,0.198 -0.488,0.213 -0.686,0.033c-5.545,-5.034 -12.198,-11.049 -12.855,-11.642l-0.658,-0.313c-0.04,-0.019 -0.077,-0.044 -0.111,-0.073l-1.684,-1.473c-0.201,-0.176 -0.222,-0.484 -0.045,-0.685c0.176,-0.202 0.483,-0.223 0.685,-0.046l1.633,1.428l0.661,0.315c0.043,0.02 0.083,0.046 0.118,0.078c-0,0 7.069,6.389 12.909,11.691Z" style="fill:#c77e3f;"/><path d="M23.348,20.42c0.201,0.178 0.22,0.485 0.042,0.686c-0.177,0.2 -0.485,0.219 -0.685,0.042l-13.085,-11.578c-0.036,-0.032 -0.066,-0.068 -0.091,-0.109l-0.385,-0.623l-1.598,-1.468c-0.198,-0.182 -0.211,-0.489 -0.029,-0.687c0.181,-0.197 0.489,-0.21 0.686,-0.029l1.647,1.514c0.033,0.03 0.062,0.064 0.085,0.102l0.383,0.62l13.03,11.53Z" style="fill:#c77e3f;"/><path d="M6.775,8.898c-0.183,0.196 -0.491,0.206 -0.687,0.023c-0.195,-0.183 -0.206,-0.491 -0.023,-0.686l1.455,-1.555c0.183,-0.196 0.491,-0.206 0.686,-0.023c0.196,0.183 0.206,0.491 0.023,0.687l-1.454,1.554Z" style="fill:#c77e3f;"/><path d="M6.372,6.763c0.124,0.124 0.124,0.325 0,0.45c-0.124,0.124 -0.326,0.124 -0.45,-0l-2.55,-2.55c-0.124,-0.125 -0.124,-0.326 -0,-0.451c0.124,-0.124 0.326,-0.124 0.45,0l2.55,2.551Z" style="fill:#c77e3f;"/><path d="M7.268,6.209c0.055,0.166 -0.035,0.347 -0.201,0.402c-0.167,0.056 -0.348,-0.034 -0.403,-0.201l-1.461,-4.382c-0.056,-0.167 0.034,-0.347 0.201,-0.403c0.167,-0.056 0.347,0.035 0.403,0.201l1.461,4.383Z" style="fill:#c77e3f;"/><path d="M5.71,7.501c0.168,0.052 0.261,0.231 0.209,0.399c-0.053,0.167 -0.232,0.261 -0.399,0.208l-4.642,-1.457c-0.167,-0.053 -0.261,-0.232 -0.208,-0.399c0.052,-0.168 0.231,-0.261 0.399,-0.209l4.641,1.458Z" style="fill:#c77e3f;"/><path d="M22.172,22.417c-0.19,0.189 -0.497,0.189 -0.687,-0c-0.19,-0.19 -0.19,-0.498 -0,-0.687l1.198,-1.199c0.19,-0.189 0.497,-0.189 0.687,0c0.19,0.19 0.19,0.498 0,0.687l-1.198,1.199Z" style="fill:#c77e3f;"/></g></svg>