<?xml version="1.0" encoding="UTF-8" standalone="no"?><!DOCTYPE svg PUBLIC "-//W3C//DTD SVG 1.1//EN" "http://www.w3.org/Graphics/SVG/1.1/DTD/svg11.dtd"><svg width="100%" height="100%" viewBox="0 0 24 24" version="1.1" xmlns="http://www.w3.org/2000/svg" xmlns:xlink="http://www.w3.org/1999/xlink" xml:space="preserve" xmlns:serif="http://www.serif.com/" style="fill-rule:evenodd;clip-rule:evenodd;stroke-linejoin:round;stroke-miterlimit:2;"><rect id="Residential-Painting-Icon" serif:id="Residential Painting Icon" x="0" y="0" width="24" height="24" style="fill:none;"/><g id="Residential-Painting-Icon1" serif:id="Residential Painting Icon"><path d="M8.312,2.234c0,-0.27 0.219,-0.489 0.49,-0.489c0.27,-0 0.489,0.219 0.489,0.489l0,1.469c0,0.27 -0.219,0.489 -0.489,0.489c-0.271,0 -0.49,-0.219 -0.49,-0.489l0,-1.469Z" style="fill:#c77e3f;"/><path d="M7.149,5.056c-0,0.27 -0.219,0.489 -0.49,0.489c-0.27,0 -0.489,-0.219 -0.489,-0.489l-0,-2.822c-0,-0.27 0.219,-0.489 0.489,-0.489l2.143,-0c0.27,-0 0.489,0.219 0.489,0.489c0,0.27 -0.219,0.489 -0.489,0.489l-1.653,0l-0,2.333Z" style="fill:#c77e3f;"/><path d="M1.787,8.712c-0.228,0.144 -0.531,0.076 -0.675,-0.153c-0.144,-0.228 -0.076,-0.531 0.152,-0.675l5.134,-3.242c0.228,-0.144 0.531,-0.076 0.675,0.152c0.145,0.229 0.076,0.531 -0.152,0.676l-5.134,3.242Z" style="fill:#c77e3f;"/><path d="M9.155,4.059c-0.229,0.144 -0.531,0.076 -0.676,-0.153c-0.144,-0.228 -0.076,-0.531 0.153,-0.675l3.107,-1.962c0.159,-0.101 0.363,-0.101 0.522,-0l10.475,6.615c0.184,0.117 0.269,0.341 0.209,0.55c-0.061,0.209 -0.253,0.354 -0.471,0.354l-2.205,-0c-0.27,-0 -0.489,-0.22 -0.489,-0.49c-0,-0.27 0.219,-0.489 0.489,-0.489l0.514,-0l-8.783,-5.547l-2.845,1.797Z" style="fill:#c77e3f;"/><path d="M1.526,8.788c-0.271,-0 -0.49,-0.22 -0.49,-0.49c0,-0.27 0.219,-0.489 0.49,-0.489l2.205,-0c0.27,-0 0.489,0.219 0.489,0.489c0,0.27 -0.219,0.49 -0.489,0.49l-2.205,-0Z" style="fill:#c77e3f;"/><path d="M18.788,19.937c0.27,-0 0.489,0.219 0.489,0.489c0,0.27 -0.219,0.49 -0.489,0.49l-1.465,-0c-0.27,-0 -0.489,-0.22 -0.489,-0.49c-0,-0.27 0.219,-0.489 0.489,-0.489l1.465,-0Z" style="fill:#c77e3f;"/><path d="M14.774,19.937c0.27,-0 0.489,0.219 0.489,0.489c0,0.27 -0.219,0.49 -0.489,0.49l-11.043,-0c-0.271,-0 -0.49,-0.219 -0.49,-0.49l0,-12.128c0,-0.27 0.22,-0.489 0.49,-0.489c0.27,-0 0.489,0.219 0.489,0.489l0,11.639l10.554,-0Z" style="fill:#c77e3f;"/><path d="M18.788,20.916c-0.271,-0 -0.49,-0.22 -0.49,-0.49c0,-0.27 0.219,-0.489 0.49,0.49Zm-0,-0l-0,-0.979l0.992,-0l-0,-11.639c-0,-0.27 0.219,-0.489 0.489,-0.489c0.27,-0 0.49,0.219 0.49,0.489l-0,12.128c-0,0.271 -0.219,0.49 -0.49,0.49l-1.481,-0Z" style="fill:#c77e3f;"/><path d="M11.597,8.271l1.912,1.912c0.191,0.191 0.191,0.501 -0,0.692l-6.056,6.055c-0.191,0.192 -0.501,0.192 -0.692,0l-1.912,-1.912c-0.191,-0.191 -0.191,-0.501 -0,-0.692l6.055,-6.055c0.191,-0.191 0.501,-0.191 0.693,-0Zm-0.347,1.038l-5.363,5.363l1.22,1.22l5.363,-5.363l-1.22,-1.22Z" style="fill:#c77e3f;"/><path d="M12.207,10.265l-0.693,-0.692l1.621,-1.621c0.191,-0.191 0.501,-0.191 0.692,-0l2.869,2.868c0.191,0.191 0.191,0.501 -0,0.693l-4.435,4.434l0.638,0.637l-0.692,0.693l-0.984,-0.984c-0.191,-0.191 -0.191,-0.501 0,-0.692l4.434,-4.435l-2.176,-2.176l-1.274,1.275Z" style="fill:#c77e3f;"/><path d="M13.827,16.238l5.324,5.324c0.191,0.191 0.191,0.501 0,0.692l-1.275,1.275c-0.191,0.191 -0.501,0.191 -0.692,-0l-5.324,-5.324c-0.191,-0.191 -0.191,-0.501 0,-0.692l1.275,-1.275c0.191,-0.191 0.501,-0.191 0.692,0Zm-0.346,1.039l-0.582,0.582l4.631,4.631l0.583,-0.582l-4.632,-4.631Z" style="fill:#c77e3f;"/></g></svg>